<svg width="25" height="24" viewBox="0 0 25 24" fill="none" xmlns="http://www.w3.org/2000/svg">
<path d="M6.96154 12.0004V8.35908C6.97235 7.64331 7.1243 6.93671 7.40868 6.27976C7.69306 5.62282 8.10428 5.02844 8.61878 4.53069C9.13328 4.03294 9.74094 3.64159 10.407 3.37908C11.073 3.11657 11.7842 2.98804 12.5 3.00087C13.2158 2.98804 13.927 3.11657 14.593 3.37908C15.2591 3.64159 15.8667 4.03294 16.3812 4.53069C16.8957 5.02844 17.3069 5.62282 17.5913 6.27976C17.8757 6.93671 18.0276 7.64331 18.0385 8.35908V12.0004M15.2692 19.2693C16.0037 19.2693 16.708 18.9776 17.2274 18.4583C17.7467 17.939 18.0385 17.2346 18.0385 16.5002V13.385M15.2692 19.2693C15.2692 19.7283 15.0869 20.1685 14.7623 20.4931C14.4377 20.8177 13.9975 21 13.5385 21H11.4615C11.0025 21 10.5623 20.8177 10.2377 20.4931C9.91312 20.1685 9.73077 19.7283 9.73077 19.2693C9.73077 18.8103 9.91312 18.3701 10.2377 18.0455C10.5623 17.721 11.0025 17.5386 11.4615 17.5386H13.5385C13.9975 17.5386 14.4377 17.721 14.7623 18.0455C15.0869 18.3701 15.2692 18.8103 15.2692 19.2693ZM4.88462 9.92361H6.26923C6.45284 9.92361 6.62893 9.99655 6.75877 10.1264C6.8886 10.2562 6.96154 10.4323 6.96154 10.6159V14.7695C6.96154 14.9531 6.8886 15.1292 6.75877 15.259C6.62893 15.3889 6.45284 15.4618 6.26923 15.4618H4.88462C4.51739 15.4618 4.16521 15.3159 3.90554 15.0563C3.64588 14.7966 3.5 14.4445 3.5 14.0773V11.3082C3.5 10.941 3.64588 10.5888 3.90554 10.3291C4.16521 10.0695 4.51739 9.92361 4.88462 9.92361ZM20.1154 15.4618H18.7308C18.5472 15.4618 18.3711 15.3889 18.2412 15.259C18.1114 15.1292 18.0385 14.9531 18.0385 14.7695V10.6159C18.0385 10.4323 18.1114 10.2562 18.2412 10.1264C18.3711 9.99655 18.5472 9.92361 18.7308 9.92361H20.1154C20.4826 9.92361 20.8348 10.0695 21.0945 10.3291C21.3541 10.5888 21.5 10.941 21.5 11.3082V14.0773C21.5 14.4445 21.3541 14.7966 21.0945 15.0563C20.8348 15.3159 20.4826 15.4618 20.1154 15.4618Z" stroke="#00ADEF" stroke-width="2" stroke-linecap="round" stroke-linejoin="round"/>
</svg>
