<svg width="24" height="24" viewBox="0 0 24 24" fill="none" xmlns="http://www.w3.org/2000/svg">
<path d="M20 9.99998V18H22V9.99998H20ZM19 19H5V21H19V19ZM4 18V6H2V18H4ZM5 19C4.44772 19 4 18.5523 4 18H2C2 19.6568 3.34315 21 5 21V19ZM20 18C20 18.5523 19.5523 19 19 19V21C20.6569 21 22 19.6568 22 18H20ZM19 8.99998C19.5523 8.99998 20 9.4477 20 9.99998H22C22 8.34313 20.6569 6.99998 19 6.99998V8.99998ZM15.6134 8.99998H19V6.99998H15.6134V8.99998Z" fill="#393185"/>
<path d="M3 6C3 4.89543 3.89543 4 5 4H15C16.1046 4 17 4.89543 17 6V8H5C3.89543 8 3 7.10457 3 6V6Z" stroke="#393185" stroke-width="2"/>
<path d="M19 12.0001V13.0001H19L19 12.0001ZM19 15.0001C18.4477 15.0001 18 14.5523 18 14.0001H16C16 15.6569 17.3431 17.0001 19 17.0001V15.0001ZM19 11.0001C17.3431 11.0001 16 12.3432 16 14.0001H18C18 13.4478 18.4477 13.0001 19 13.0001V11.0001ZM19 13.0001L21 13L21 11L19 11.0001L19 13.0001ZM21 15.0001H19V17.0001H21V15.0001Z" fill="#393185"/>
</svg>
